<mxfile host="app.diagrams.net" modified="2021-05-12T09:34:16.486Z" agent="5.0 (Windows)" etag="2EUEmZsmOqgNHz3cwH7C" version="14.6.3" type="github">
  <diagram id="sqRvRGERYneaMJ9OVf4g" name="Page-1">
    <mxGraphModel dx="1485" dy="836" grid="1" gridSize="10" guides="1" tooltips="1" connect="1" arrows="1" fold="1" page="1" pageScale="1" pageWidth="1200" pageHeight="1920" math="0" shadow="0">
      <root>
        <mxCell id="0" />
        <mxCell id="1" parent="0" />
        <mxCell id="5Ra57cWh45_XPo_fh56Z-21" value="" style="strokeWidth=2;html=1;shape=mxgraph.flowchart.annotation_1;align=left;pointerEvents=1;rotation=-180;" vertex="1" parent="1">
          <mxGeometry x="385" y="290" width="50" height="100" as="geometry" />
        </mxCell>
        <mxCell id="5Ra57cWh45_XPo_fh56Z-1" value="SqlSessionFactory" style="rounded=0;whiteSpace=wrap;html=1;" vertex="1" parent="1">
          <mxGeometry x="110" y="150" width="120" height="60" as="geometry" />
        </mxCell>
        <mxCell id="5Ra57cWh45_XPo_fh56Z-2" value="" style="endArrow=classic;html=1;exitX=0.5;exitY=1;exitDx=0;exitDy=0;startArrow=none;" edge="1" parent="1" source="5Ra57cWh45_XPo_fh56Z-13">
          <mxGeometry width="50" height="50" relative="1" as="geometry">
            <mxPoint x="570" y="390" as="sourcePoint" />
            <mxPoint x="170" y="600" as="targetPoint" />
          </mxGeometry>
        </mxCell>
        <mxCell id="5Ra57cWh45_XPo_fh56Z-3" value="XMLConfigBuilder" style="rounded=0;whiteSpace=wrap;html=1;" vertex="1" parent="1">
          <mxGeometry x="330" y="150" width="120" height="60" as="geometry" />
        </mxCell>
        <mxCell id="5Ra57cWh45_XPo_fh56Z-4" value="" style="endArrow=classic;html=1;exitX=0.5;exitY=1;exitDx=0;exitDy=0;startArrow=none;" edge="1" parent="1" source="5Ra57cWh45_XPo_fh56Z-15">
          <mxGeometry width="50" height="50" relative="1" as="geometry">
            <mxPoint x="790" y="390" as="sourcePoint" />
            <mxPoint x="390" y="600" as="targetPoint" />
          </mxGeometry>
        </mxCell>
        <mxCell id="5Ra57cWh45_XPo_fh56Z-7" value="XMLMapperBuilder" style="rounded=0;whiteSpace=wrap;html=1;" vertex="1" parent="1">
          <mxGeometry x="870" y="150" width="120" height="60" as="geometry" />
        </mxCell>
        <mxCell id="5Ra57cWh45_XPo_fh56Z-8" value="" style="endArrow=classic;html=1;exitX=0.5;exitY=1;exitDx=0;exitDy=0;startArrow=none;" edge="1" parent="1" source="5Ra57cWh45_XPo_fh56Z-56">
          <mxGeometry width="50" height="50" relative="1" as="geometry">
            <mxPoint x="1330" y="390" as="sourcePoint" />
            <mxPoint x="930" y="630" as="targetPoint" />
          </mxGeometry>
        </mxCell>
        <mxCell id="5Ra57cWh45_XPo_fh56Z-9" value="MapperBuilderAssistant" style="rounded=0;whiteSpace=wrap;html=1;" vertex="1" parent="1">
          <mxGeometry x="1270" y="150" width="140" height="60" as="geometry" />
        </mxCell>
        <mxCell id="5Ra57cWh45_XPo_fh56Z-10" value="" style="endArrow=classic;html=1;exitX=0.5;exitY=1;exitDx=0;exitDy=0;startArrow=none;" edge="1" parent="1" source="5Ra57cWh45_XPo_fh56Z-46">
          <mxGeometry width="50" height="50" relative="1" as="geometry">
            <mxPoint x="1730" y="390" as="sourcePoint" />
            <mxPoint x="1340" y="600" as="targetPoint" />
          </mxGeometry>
        </mxCell>
        <mxCell id="5Ra57cWh45_XPo_fh56Z-11" value="" style="endArrow=classic;html=1;" edge="1" parent="1">
          <mxGeometry width="50" height="50" relative="1" as="geometry">
            <mxPoint x="170" y="280" as="sourcePoint" />
            <mxPoint x="390" y="280" as="targetPoint" />
          </mxGeometry>
        </mxCell>
        <mxCell id="5Ra57cWh45_XPo_fh56Z-12" value="builder" style="text;html=1;align=center;verticalAlign=middle;resizable=0;points=[];autosize=1;strokeColor=none;" vertex="1" parent="1">
          <mxGeometry x="255" y="250" width="50" height="20" as="geometry" />
        </mxCell>
        <mxCell id="5Ra57cWh45_XPo_fh56Z-13" value="" style="rounded=0;whiteSpace=wrap;html=1;" vertex="1" parent="1">
          <mxGeometry x="165" y="280" width="10" height="120" as="geometry" />
        </mxCell>
        <mxCell id="5Ra57cWh45_XPo_fh56Z-14" value="" style="endArrow=none;html=1;exitX=0.5;exitY=1;exitDx=0;exitDy=0;" edge="1" parent="1" source="5Ra57cWh45_XPo_fh56Z-1" target="5Ra57cWh45_XPo_fh56Z-13">
          <mxGeometry width="50" height="50" relative="1" as="geometry">
            <mxPoint x="170" y="210" as="sourcePoint" />
            <mxPoint x="170" y="600" as="targetPoint" />
          </mxGeometry>
        </mxCell>
        <mxCell id="5Ra57cWh45_XPo_fh56Z-15" value="" style="rounded=0;whiteSpace=wrap;html=1;" vertex="1" parent="1">
          <mxGeometry x="385" y="290" width="10" height="100" as="geometry" />
        </mxCell>
        <mxCell id="5Ra57cWh45_XPo_fh56Z-17" value="" style="endArrow=none;html=1;exitX=0.5;exitY=1;exitDx=0;exitDy=0;" edge="1" parent="1" source="5Ra57cWh45_XPo_fh56Z-3" target="5Ra57cWh45_XPo_fh56Z-15">
          <mxGeometry width="50" height="50" relative="1" as="geometry">
            <mxPoint x="390" y="210" as="sourcePoint" />
            <mxPoint x="390" y="600" as="targetPoint" />
          </mxGeometry>
        </mxCell>
        <mxCell id="5Ra57cWh45_XPo_fh56Z-18" value="parse" style="text;html=1;align=center;verticalAlign=middle;resizable=0;points=[];autosize=1;strokeColor=none;" vertex="1" parent="1">
          <mxGeometry x="435" y="320" width="40" height="20" as="geometry" />
        </mxCell>
        <mxCell id="5Ra57cWh45_XPo_fh56Z-22" value="" style="endArrow=classic;html=1;entryX=0.5;entryY=1;entryDx=0;entryDy=0;" edge="1" parent="1" target="5Ra57cWh45_XPo_fh56Z-13">
          <mxGeometry width="50" height="50" relative="1" as="geometry">
            <mxPoint x="390" y="400" as="sourcePoint" />
            <mxPoint x="210" y="400" as="targetPoint" />
          </mxGeometry>
        </mxCell>
        <mxCell id="5Ra57cWh45_XPo_fh56Z-23" value="return Configuration" style="text;html=1;align=center;verticalAlign=middle;resizable=0;points=[];autosize=1;strokeColor=none;" vertex="1" parent="1">
          <mxGeometry x="210" y="370" width="120" height="20" as="geometry" />
        </mxCell>
        <mxCell id="5Ra57cWh45_XPo_fh56Z-24" value="" style="endArrow=classic;html=1;exitX=0;exitY=0;exitDx=0;exitDy=0;exitPerimeter=0;" edge="1" parent="1" source="5Ra57cWh45_XPo_fh56Z-21">
          <mxGeometry width="50" height="50" relative="1" as="geometry">
            <mxPoint x="445" y="390" as="sourcePoint" />
            <mxPoint x="395" y="390" as="targetPoint" />
          </mxGeometry>
        </mxCell>
        <mxCell id="5Ra57cWh45_XPo_fh56Z-27" value="XMLConfigBuilder" style="rounded=0;whiteSpace=wrap;html=1;" vertex="1" parent="1">
          <mxGeometry x="520" y="150" width="120" height="60" as="geometry" />
        </mxCell>
        <mxCell id="5Ra57cWh45_XPo_fh56Z-28" value="" style="endArrow=classic;html=1;exitX=0.5;exitY=1;exitDx=0;exitDy=0;startArrow=none;" edge="1" parent="1" source="5Ra57cWh45_XPo_fh56Z-27">
          <mxGeometry width="50" height="50" relative="1" as="geometry">
            <mxPoint x="580" y="390" as="sourcePoint" />
            <mxPoint x="580" y="670" as="targetPoint" />
          </mxGeometry>
        </mxCell>
        <mxCell id="5Ra57cWh45_XPo_fh56Z-29" value="" style="endArrow=classic;html=1;" edge="1" parent="1">
          <mxGeometry width="50" height="50" relative="1" as="geometry">
            <mxPoint x="580" y="290" as="sourcePoint" />
            <mxPoint x="660" y="290" as="targetPoint" />
          </mxGeometry>
        </mxCell>
        <mxCell id="5Ra57cWh45_XPo_fh56Z-30" value="parse" style="text;html=1;align=center;verticalAlign=middle;resizable=0;points=[];autosize=1;strokeColor=none;" vertex="1" parent="1">
          <mxGeometry x="590" y="270" width="40" height="20" as="geometry" />
        </mxCell>
        <mxCell id="5Ra57cWh45_XPo_fh56Z-31" value="" style="rounded=0;whiteSpace=wrap;html=1;" vertex="1" parent="1">
          <mxGeometry x="660" y="290" width="10" height="40" as="geometry" />
        </mxCell>
        <mxCell id="5Ra57cWh45_XPo_fh56Z-32" value="" style="endArrow=classic;html=1;exitX=0.75;exitY=1;exitDx=0;exitDy=0;" edge="1" parent="1" source="5Ra57cWh45_XPo_fh56Z-31">
          <mxGeometry width="50" height="50" relative="1" as="geometry">
            <mxPoint x="650" y="390" as="sourcePoint" />
            <mxPoint x="810" y="330" as="targetPoint" />
          </mxGeometry>
        </mxCell>
        <mxCell id="5Ra57cWh45_XPo_fh56Z-33" value="parseConfiguration" style="text;html=1;align=center;verticalAlign=middle;resizable=0;points=[];autosize=1;strokeColor=none;" vertex="1" parent="1">
          <mxGeometry x="680" y="300" width="110" height="20" as="geometry" />
        </mxCell>
        <mxCell id="5Ra57cWh45_XPo_fh56Z-34" value="" style="rounded=0;whiteSpace=wrap;html=1;" vertex="1" parent="1">
          <mxGeometry x="810" y="330" width="10" height="260" as="geometry" />
        </mxCell>
        <mxCell id="5Ra57cWh45_XPo_fh56Z-35" value="" style="endArrow=classic;html=1;exitX=-0.016;exitY=1.029;exitDx=0;exitDy=0;exitPerimeter=0;" edge="1" parent="1" source="5Ra57cWh45_XPo_fh56Z-36">
          <mxGeometry width="50" height="50" relative="1" as="geometry">
            <mxPoint x="820" y="340" as="sourcePoint" />
            <mxPoint x="930" y="370" as="targetPoint" />
          </mxGeometry>
        </mxCell>
        <mxCell id="5Ra57cWh45_XPo_fh56Z-36" value="mapperElement" style="text;html=1;align=center;verticalAlign=middle;resizable=0;points=[];autosize=1;strokeColor=none;" vertex="1" parent="1">
          <mxGeometry x="820" y="350" width="100" height="20" as="geometry" />
        </mxCell>
        <mxCell id="5Ra57cWh45_XPo_fh56Z-38" value="" style="endArrow=classic;html=1;" edge="1" parent="1">
          <mxGeometry width="50" height="50" relative="1" as="geometry">
            <mxPoint x="930" y="380" as="sourcePoint" />
            <mxPoint x="1000" y="380" as="targetPoint" />
          </mxGeometry>
        </mxCell>
        <mxCell id="5Ra57cWh45_XPo_fh56Z-39" value="parse" style="text;html=1;align=center;verticalAlign=middle;resizable=0;points=[];autosize=1;strokeColor=none;" vertex="1" parent="1">
          <mxGeometry x="950" y="360" width="40" height="20" as="geometry" />
        </mxCell>
        <mxCell id="5Ra57cWh45_XPo_fh56Z-40" value="" style="rounded=0;whiteSpace=wrap;html=1;" vertex="1" parent="1">
          <mxGeometry x="1000" y="380" width="10" height="180" as="geometry" />
        </mxCell>
        <mxCell id="5Ra57cWh45_XPo_fh56Z-41" value="" style="endArrow=classic;html=1;exitX=1.133;exitY=0.226;exitDx=0;exitDy=0;exitPerimeter=0;" edge="1" parent="1" source="5Ra57cWh45_XPo_fh56Z-40">
          <mxGeometry width="50" height="50" relative="1" as="geometry">
            <mxPoint x="1010" y="390" as="sourcePoint" />
            <mxPoint x="1150" y="420" as="targetPoint" />
          </mxGeometry>
        </mxCell>
        <mxCell id="5Ra57cWh45_XPo_fh56Z-42" value="configurationElement" style="text;html=1;align=center;verticalAlign=middle;resizable=0;points=[];autosize=1;strokeColor=none;" vertex="1" parent="1">
          <mxGeometry x="1010" y="400" width="130" height="20" as="geometry" />
        </mxCell>
        <mxCell id="5Ra57cWh45_XPo_fh56Z-43" value="" style="rounded=0;whiteSpace=wrap;html=1;" vertex="1" parent="1">
          <mxGeometry x="1150" y="420" width="10" height="110" as="geometry" />
        </mxCell>
        <mxCell id="5Ra57cWh45_XPo_fh56Z-44" value="" style="endArrow=classic;html=1;" edge="1" parent="1">
          <mxGeometry width="50" height="50" relative="1" as="geometry">
            <mxPoint x="1160" y="460" as="sourcePoint" />
            <mxPoint x="1340" y="460" as="targetPoint" />
          </mxGeometry>
        </mxCell>
        <mxCell id="5Ra57cWh45_XPo_fh56Z-45" value="buildStatementFromContext" style="text;html=1;align=center;verticalAlign=middle;resizable=0;points=[];autosize=1;strokeColor=none;" vertex="1" parent="1">
          <mxGeometry x="1170" y="440" width="160" height="20" as="geometry" />
        </mxCell>
        <mxCell id="5Ra57cWh45_XPo_fh56Z-46" value="" style="rounded=0;whiteSpace=wrap;html=1;" vertex="1" parent="1">
          <mxGeometry x="1335" y="470" width="10" height="40" as="geometry" />
        </mxCell>
        <mxCell id="5Ra57cWh45_XPo_fh56Z-47" value="" style="endArrow=none;html=1;exitX=0.5;exitY=1;exitDx=0;exitDy=0;" edge="1" parent="1" source="5Ra57cWh45_XPo_fh56Z-9" target="5Ra57cWh45_XPo_fh56Z-46">
          <mxGeometry width="50" height="50" relative="1" as="geometry">
            <mxPoint x="1340" y="210" as="sourcePoint" />
            <mxPoint x="1340" y="600" as="targetPoint" />
          </mxGeometry>
        </mxCell>
        <mxCell id="5Ra57cWh45_XPo_fh56Z-50" style="edgeStyle=orthogonalEdgeStyle;rounded=0;orthogonalLoop=1;jettySize=auto;html=1;exitX=1;exitY=0;exitDx=0;exitDy=0;entryX=1;entryY=1;entryDx=0;entryDy=0;" edge="1" parent="1" source="5Ra57cWh45_XPo_fh56Z-46" target="5Ra57cWh45_XPo_fh56Z-46">
          <mxGeometry relative="1" as="geometry">
            <Array as="points">
              <mxPoint x="1390" y="470" />
              <mxPoint x="1390" y="510" />
            </Array>
          </mxGeometry>
        </mxCell>
        <mxCell id="5Ra57cWh45_XPo_fh56Z-51" value="addMappedStatement" style="text;html=1;align=center;verticalAlign=middle;resizable=0;points=[];autosize=1;strokeColor=none;" vertex="1" parent="1">
          <mxGeometry x="1400" y="480" width="130" height="20" as="geometry" />
        </mxCell>
        <mxCell id="5Ra57cWh45_XPo_fh56Z-52" value="" style="endArrow=classic;html=1;" edge="1" parent="1">
          <mxGeometry width="50" height="50" relative="1" as="geometry">
            <mxPoint x="1340" y="520" as="sourcePoint" />
            <mxPoint x="1160" y="520" as="targetPoint" />
          </mxGeometry>
        </mxCell>
        <mxCell id="5Ra57cWh45_XPo_fh56Z-54" value="" style="endArrow=classic;html=1;entryX=1.207;entryY=0.833;entryDx=0;entryDy=0;entryPerimeter=0;" edge="1" parent="1" target="5Ra57cWh45_XPo_fh56Z-40">
          <mxGeometry width="50" height="50" relative="1" as="geometry">
            <mxPoint x="1150" y="530" as="sourcePoint" />
            <mxPoint x="1070" y="530" as="targetPoint" />
          </mxGeometry>
        </mxCell>
        <mxCell id="5Ra57cWh45_XPo_fh56Z-56" value="" style="rounded=0;whiteSpace=wrap;html=1;" vertex="1" parent="1">
          <mxGeometry x="925" y="370" width="10" height="200" as="geometry" />
        </mxCell>
        <mxCell id="5Ra57cWh45_XPo_fh56Z-57" value="" style="endArrow=none;html=1;exitX=0.5;exitY=1;exitDx=0;exitDy=0;" edge="1" parent="1" source="5Ra57cWh45_XPo_fh56Z-7" target="5Ra57cWh45_XPo_fh56Z-56">
          <mxGeometry width="50" height="50" relative="1" as="geometry">
            <mxPoint x="930" y="210" as="sourcePoint" />
            <mxPoint x="930" y="600" as="targetPoint" />
          </mxGeometry>
        </mxCell>
        <mxCell id="5Ra57cWh45_XPo_fh56Z-55" value="" style="endArrow=classic;html=1;exitX=0.25;exitY=1;exitDx=0;exitDy=0;" edge="1" parent="1" source="5Ra57cWh45_XPo_fh56Z-40">
          <mxGeometry width="50" height="50" relative="1" as="geometry">
            <mxPoint x="1230" y="430" as="sourcePoint" />
            <mxPoint x="930" y="560" as="targetPoint" />
          </mxGeometry>
        </mxCell>
        <mxCell id="5Ra57cWh45_XPo_fh56Z-58" value="" style="endArrow=classic;html=1;exitX=0.5;exitY=1;exitDx=0;exitDy=0;" edge="1" parent="1" source="5Ra57cWh45_XPo_fh56Z-56">
          <mxGeometry width="50" height="50" relative="1" as="geometry">
            <mxPoint x="1060" y="440" as="sourcePoint" />
            <mxPoint x="820" y="571" as="targetPoint" />
          </mxGeometry>
        </mxCell>
        <mxCell id="5Ra57cWh45_XPo_fh56Z-59" value="" style="endArrow=classic;html=1;exitX=0.25;exitY=1;exitDx=0;exitDy=0;" edge="1" parent="1" source="5Ra57cWh45_XPo_fh56Z-34">
          <mxGeometry width="50" height="50" relative="1" as="geometry">
            <mxPoint x="900" y="490" as="sourcePoint" />
            <mxPoint x="580" y="590" as="targetPoint" />
          </mxGeometry>
        </mxCell>
        <mxCell id="5Ra57cWh45_XPo_fh56Z-60" value="returnConfiguration" style="text;html=1;align=center;verticalAlign=middle;resizable=0;points=[];autosize=1;strokeColor=none;" vertex="1" parent="1">
          <mxGeometry x="625" y="570" width="110" height="20" as="geometry" />
        </mxCell>
      </root>
    </mxGraphModel>
  </diagram>
</mxfile>
